<?xml version="1.0" encoding="utf-8"?>
<!-- Generator: Adobe Illustrator 21.0.1, SVG Export Plug-In . SVG Version: 6.00 Build 0)  -->
<svg version="1.1" id="Layer_1" xmlns="http://www.w3.org/2000/svg" xmlns:xlink="http://www.w3.org/1999/xlink" x="0px" y="0px"
	 viewBox="0 0 135.7 61.6" style="enable-background:new 0 0 135.7 61.6;" xml:space="preserve">
<style type="text/css">
	.st0{fill:#625772;}
</style>
<title>Asset 3</title>
<g id="Layer_2">
	<g id="Layer_3">
		<path class="st0" d="M14.2,44.7c5.7-12.1,15.3-21.9,27.3-27.9c6.1-3.1,12.7-5.1,19.6-5.9c4-0.4,8.5-0.7,12.3,1
			c5.7,2.5,7.2,8.1,2.6,12.6c-3.1,3.1-8.6,6.4-12.8,3.2c-5-3.8,1-10.9,4.1-13c6.3-4.2,14.4-6.6,21.8-8.4c8.1-2,16.5-3,24.9-3
			c6.9,0,15,0.8,19,7.1c1,1.6,3.6,0.1,2.6-1.5c-7.9-12.5-28.9-9.1-41-6.9c-9,1.6-17.8,4.4-26,8.5c-5.4,2.8-10.8,7.5-9.8,14.2
			c1.9,13.8,22.3,5.1,23.2-5c0.5-6.3-5.2-10.6-10.8-11.8c-7.3-1.4-15.7,0.3-22.7,2.6C32.3,16.2,19,27.9,11.6,43.2
			C10.8,45,13.4,46.5,14.2,44.7z"/>
		<path class="st0" d="M2.5,41.8L24,54.5l0.8-2.8C17.6,52,9.9,52.9,5.7,59.3l2.8,0.8c-0.3-7.2-2.3-14.3-5.7-20.7l-2.4,1.8l1.7,1.4
			c1.5,1.2,3.6-0.9,2.1-2.1l-1.7-1.4c-0.6-0.6-1.6-0.5-2.1,0.1c-0.4,0.5-0.5,1.2-0.2,1.7c3.1,5.9,4.9,12.5,5.3,19.2
			c0,0.8,0.7,1.5,1.5,1.5c0.5,0,1-0.3,1.3-0.7c3.5-5.4,10.5-5.9,16.5-6.2c0.8,0,1.5-0.7,1.5-1.5c0-0.5-0.3-1-0.7-1.3L4,39.2
			c-0.7-0.4-1.6-0.2-2.1,0.5S1.7,41.4,2.5,41.8z"/>
	</g>
</g>
</svg>
