<?xml version="1.0" encoding="utf-8"?>
<!-- Generator: Adobe Illustrator 21.0.1, SVG Export Plug-In . SVG Version: 6.00 Build 0)  -->
<svg version="1.1" id="Layer_1" xmlns="http://www.w3.org/2000/svg" xmlns:xlink="http://www.w3.org/1999/xlink" x="0px" y="0px"
	 viewBox="0 0 206.6 85.2" style="enable-background:new 0 0 206.6 85.2;" xml:space="preserve">
<style type="text/css">
	.st0{fill:#625772;}
</style>
<title>Asset 1</title>
<g id="Layer_2">
	<g id="Layer_2-2">
		<path class="st0" d="M2.4,59.2l20.3,6.1l-0.4-2.8c-7.1,4.5-12.9,10.7-17.1,18L8,80.9L3,57.2c-0.4-1.9-3.4-1.1-3,0.8l5,23.7
			c0.2,0.8,1.1,1.3,1.9,1c0.4-0.1,0.7-0.3,0.9-0.7c3.9-6.8,9.4-12.6,16-16.9c0.7-0.5,0.9-1.4,0.5-2.1c-0.2-0.3-0.5-0.5-0.8-0.6
			L3.2,56.3C1.3,55.7,0.5,58.7,2.4,59.2z"/>
		<path class="st0" d="M204,0.4c-23.2,21.2-50.6,37.3-80.4,47.3c-7.2,2.4-14.4,4.5-21.8,6.1c-4.2,1-8.7,2.2-13,1.4
			C86,54.9,83.3,53.6,82,51c-1.8-3.6,0.3-7.6,4.5-7.5c6.2,0.2,7.3,7.3,5.6,11.9c-1.6,4.4-5.4,7.5-9.1,10.1
			C76.9,70,70.3,74,63.5,77.3c-15.2,7.1-36.6,8.3-46.5-7.9c-1-1.6-3.6-0.1-2.6,1.5C24.1,86.8,44.8,88,60.7,81.7
			c9.3-3.9,18.1-9,26-15.3c6.1-4.7,12.1-12.9,7.9-20.9c-2.7-5.2-10.8-7.2-14.8-2.3s-0.1,12,5.1,14.2c4.6,2,9.8,1,14.5,0.1
			c5.5-1.1,10.9-2.5,16.3-4.1c10.1-2.9,19.9-6.6,29.4-10.8c22.3-10,42.9-23.5,61-40C207.5,1.3,205.3-0.9,204,0.4L204,0.4z"/>
	</g>
</g>
</svg>
