<?xml version="1.0" encoding="utf-8"?>
<!-- Generator: Adobe Illustrator 21.0.1, SVG Export Plug-In . SVG Version: 6.00 Build 0)  -->
<svg version="1.1" id="Layer_2" xmlns="http://www.w3.org/2000/svg" xmlns:xlink="http://www.w3.org/1999/xlink" x="0px" y="0px"
	 viewBox="0 0 156.1 69.6" style="enable-background:new 0 0 156.1 69.6;" xml:space="preserve">
<style type="text/css">
	.st0{fill:#625772;}
</style>
<g>
	<g>
		<path class="st0" d="M1.5,2.8C9.9,16.5,19.4,30,32.7,39.4c10.8,7.6,26.6,13.7,39.6,8.3c4.4-1.8,8.5-5,10.2-9.7
			c1.4-3.8,1.3-10.1-3.3-11.8c-4.5-1.7-7.7,3.3-7.7,7.3c0,5.5,4.3,9.6,9.3,11.1c17.2,5.2,40.4-8.3,53.3,9.5c1.3,1.8,4.4,0.1,3.1-1.8
			c-7.1-9.8-18.8-12-30.2-11.4c-7.8,0.4-16.8,2.6-24.5,0.5c-3.1-0.9-6-2.5-7-5.8c-0.6-1.8-0.2-8.2,3.6-4.8c2.9,2.6-1.1,8.7-2.9,10.4
			c-10.9,10.3-29.8,3.1-40.3-3.9c-13.5-9-23-22.7-31.3-36.2C3.4-1,0.3,0.8,1.5,2.8L1.5,2.8z"/>
	</g>
</g>
<g>
	<g>
		<path class="st0" d="M132.3,62.1c2.3,0,2.3-3.6,0-3.6C129.9,58.5,129.9,62.1,132.3,62.1L132.3,62.1z"/>
	</g>
</g>
<g>
	<g>
		<path class="st0" d="M133.2,62.1c5.1-2.7,9.1-6.7,12-11.7c1.2-2-1.9-3.8-3.1-1.8c-2.6,4.4-6.1,8-10.7,10.4
			C129.4,60,131.2,63.1,133.2,62.1L133.2,62.1z"/>
	</g>
</g>
<g>
	<g>
		<path class="st0" d="M131.7,62c6.4,1.6,15.5-1.5,19.8,4.7c1.1,1.6,3.9,0.7,3.3-1.4c-2-6.9-4.6-13.6-7.8-20c-1-2.1-4.1-0.3-3.1,1.8
			c3.1,6.2,5.5,12.6,7.4,19.2c1.1-0.5,2.2-0.9,3.3-1.4c-5.5-7.8-14.1-4.4-21.9-6.3C130.4,58,129.4,61.5,131.7,62L131.7,62z"/>
	</g>
</g>
<g>
	<g>
		<path class="st0" d="M144.4,44.2c-1.5,2.5-3.2,4.7-5.3,6.7c-1.6,1.6,0.9,4.2,2.5,2.5c2.2-2.2,4.2-4.8,5.8-7.5
			C148.7,44,145.6,42.2,144.4,44.2L144.4,44.2z"/>
	</g>
</g>
<g>
	<g>
		<path class="st0" d="M138.7,51.2c-2.5,2.7-5.1,5.2-7.8,7.7c-1.7,1.6,0.8,4.1,2.5,2.5c2.7-2.5,5.3-5.1,7.8-7.7
			C142.8,52.1,140.3,49.6,138.7,51.2L138.7,51.2z"/>
	</g>
</g>
</svg>
