<svg id="674b4540-c9d3-45de-b2a6-bf4318ce878f" data-name="Layer 1" xmlns="http://www.w3.org/2000/svg" viewBox="0 0 88.93 65.85"><defs><style>.\39 a91fb22-bb99-4e12-a7c2-7e740193f907{fill:#625772;}</style></defs><title>arrow-tiny-down2</title><g id="2495e340-d476-4fe7-b94b-1b3318b4bd60" data-name="Layer 2"><g id="a27268bd-c6b9-4836-8c06-1a7ac56b33f5" data-name="Layer 5"><path class="9a91fb22-bb99-4e12-a7c2-7e740193f907" d="M3.5,1.88a69.32,69.32,0,0,1,23.36,4.7c5.79,2.3,12.63,5.6,15.47,11.3,1.89,4,1.37,9.7-2.63,12.5-3.26,2.2-6.63-.2-7.47-3.6-3.05-12.4,17.68-8.7,23.78-5.9,11.58,5.4,19.47,16.1,20.63,28.2.21,1.9-2.95,1.9-3.16,0-1.37-14.2-16.1-30.3-32.73-28.2-2.42.3-7.79,2.4-5.58,5.7,3.05,4.6,4.95-2.9,4.84-4.6-.32-4.8-4.74-8-8.84-10.1A61.59,61.59,0,0,0,3.5,4.78,1.46,1.46,0,1,1,3.5,1.88Z" transform="translate(-1.92 -1.87)"/><path class="9a91fb22-bb99-4e12-a7c2-7e740193f907" d="M85.37,55.08A61.82,61.82,0,0,0,60.22,51l1.16-2.5a30.15,30.15,0,0,1,10.84,17.4l-2.63-.7a43.14,43.14,0,0,1,19.36-12.3,1.46,1.46,0,1,1,.84,2.8,40.36,40.36,0,0,0-18.1,11.6,1.58,1.58,0,0,1-2.21,0,2.09,2.09,0,0,1-.42-.6A26.51,26.51,0,0,0,59,50.58c-1.16-.9-.11-2.4,1.16-2.5A64.83,64.83,0,0,1,86,52.28c1.89.7,1.05,3.6-.63,2.8Z" transform="translate(-1.92 -1.87)"/></g></g></svg>