<?xml version="1.0" encoding="utf-8"?>
<!-- Generator: Adobe Illustrator 21.0.1, SVG Export Plug-In . SVG Version: 6.00 Build 0)  -->
<svg version="1.1" id="Layer_1" xmlns="http://www.w3.org/2000/svg" xmlns:xlink="http://www.w3.org/1999/xlink" x="0px" y="0px"
	 viewBox="0 0 85.7 67.6" style="enable-background:new 0 0 85.7 67.6;" xml:space="preserve">
<style type="text/css">
	.st0{fill:#625772;}
</style>
<title>Asset 7</title>
<g id="Layer_2">
	<g id="Layer_5">
		<path class="st0" d="M84.2,0c-7.7,0.2-15.3,1.8-22.5,4.8c-5.6,2.4-12.2,5.7-14.9,11.6c-1.8,4.1-1.3,10,2.5,12.8
			c3.1,2.3,6.4-0.1,7.2-3.6c2.9-12.7-17-8.9-22.9-6.1C22.4,25,14.8,36,13.7,48.4c-0.2,1.9,2.8,1.9,3,0C18,33.8,32.2,17.3,48.2,19.5
			c2.3,0.3,7.5,2.5,5.4,5.9c-2.9,4.7-4.8-3-4.7-4.7c0.3-4.9,4.6-8.2,8.5-10.4C65.6,5.7,74.8,3.2,84.2,3C86.2,2.9,86.2-0.1,84.2,0z"
			/>
		<path class="st0" d="M5.3,54.6c7.7-3.2,16-4.6,24.2-4.2l-1.1-2.6C23,52.4,19.3,58.7,18,65.7l2.5-0.7C15.6,59.2,9.1,54.8,1.8,52.4
			C0,51.8-0.8,54.7,1,55.3c6.8,2.3,12.8,6.4,17.4,11.9c0.6,0.6,1.6,0.6,2.1,0c0.2-0.2,0.3-0.4,0.4-0.6c1.2-6.5,4.6-12.4,9.7-16.5
			c1.1-0.9,0.1-2.5-1.1-2.6c-8.5-0.4-17.1,1.1-25,4.3C2.8,52.5,3.6,55.4,5.3,54.6L5.3,54.6z"/>
	</g>
</g>
</svg>
