<?xml version="1.0" encoding="utf-8"?>
<!-- Generator: Adobe Illustrator 21.0.1, SVG Export Plug-In . SVG Version: 6.00 Build 0)  -->
<svg version="1.1" id="Layer_1" xmlns="http://www.w3.org/2000/svg" xmlns:xlink="http://www.w3.org/1999/xlink" x="0px" y="0px"
	 viewBox="0 0 73.9 27.3" style="enable-background:new 0 0 73.9 27.3;" xml:space="preserve">
<style type="text/css">
	.st0{fill:#625772;}
</style>
<title>Asset 6</title>
<g id="Layer_2">
	<g id="Layer_6">
		<path class="st0" d="M71.3,0.4C63.7,7.9,54.2,13.3,43.9,16c-1.1,0.3-2.1,0.6-3.2,0.7h-4.2l0.2-3.2c1.8,1.1-6,7.1-6.5,7.4
			c-5.1,3.6-13.1,5.6-17.2-0.6c-1.1-1.6-3.6-0.1-2.6,1.5c5.8,8.8,16.7,5.5,23.6,0c2.9-2.3,6.4-5.5,5.5-9.6c-0.6-2.8-3.2-5-6.1-4
			s-4.2,4.9-2.8,7.6c2,4,7,4.4,10.8,3.8c12-2.1,23.3-8.7,32-17.1C74.9,1.2,72.8-0.9,71.3,0.4L71.3,0.4z"/>
		<path class="st0" d="M12.6,15.6l-10,7.2l2.2,1.7c1.1-3.9,0.3-8.1-2.3-11.3L1,15.7c3.8,1.5,7.8,2.3,11.9,2.2c0.8,0,1.5-0.7,1.5-1.5
			c0-0.8-0.7-1.5-1.5-1.5c-3.8,0-7.6-0.7-11.1-2.1c-1.6-0.6-2.2,1.5-1.5,2.5c1.9,2.4,2.4,5.5,1.5,8.4c-0.3,1.2,1.1,2.5,2.2,1.7
			l10-7.2C15.6,17.1,14.1,14.5,12.6,15.6L12.6,15.6z"/>
	</g>
</g>
</svg>
