<?xml version="1.0" encoding="utf-8"?>
<!-- Generator: Adobe Illustrator 21.0.1, SVG Export Plug-In . SVG Version: 6.00 Build 0)  -->
<svg version="1.1" id="Layer_1" xmlns="http://www.w3.org/2000/svg" xmlns:xlink="http://www.w3.org/1999/xlink" x="0px" y="0px"
	 viewBox="0 0 156.1 69.6" style="enable-background:new 0 0 156.1 69.6;" xml:space="preserve">
<style type="text/css">
	.st0{fill:#625772;}
</style>
<title>Asset 2</title>
<g id="Layer_2">
	<g id="Layer_1-2">
		<path class="st0" d="M0.1,2.3C7,17.9,18.8,30.8,33.8,39c11.1,6,34.2,15.4,43.7,2.3c3.8-5.2,2.7-12.4-4.2-13.9
			c-6.1-1.3-12.5,3.1-14.6,8.7C52.2,54,75,64.6,88.4,67.7c10.7,2.5,21.8,2.5,32.5,0.2c8.3-1.8,17.2-5.1,20.4-13.6
			c0.7-1.8-2.2-2.6-2.9-0.8c-3.3,8.7-14.5,11.1-22.7,12.3c-9.7,1.5-19.6,0.9-29.1-1.7C78.4,61.9,69,58.3,63.9,51
			c-2.9-4.2-4.5-10.2-2-15c2-4,8.4-8.1,12.7-5c6.5,4.7-2.2,11.8-6.6,12.9c-5,1.3-10.5,0.2-15.5-0.9c-7-1.7-13.7-4.5-19.9-8.2
			C19.4,26.9,8.9,15,2.7,0.8C2-1-0.6,0.5,0.1,2.3z"/>
		<path class="st0" d="M134.7,48.2c7.1-1.7,14-4.1,20.6-7.3l-2.1-2c-3.7,6.1-6.5,12.7-8.2,19.7l2.7-0.4c-3.7-4.8-7.5-9.3-12.9-12.1
			c-1.7-0.9-3.2,1.7-1.5,2.6c5,2.5,8.5,6.7,11.8,11c0.4,0.7,1.4,0.9,2.1,0.5c0.3-0.2,0.5-0.5,0.6-0.8c1.7-6.7,4.4-13,7.9-18.9
			c0.8-1.4-0.8-2.7-2.1-2c-6.4,3-13.1,5.4-19.9,7C132.1,45.7,132.9,48.6,134.7,48.2L134.7,48.2z"/>
	</g>
</g>
</svg>
