<?xml version="1.0" encoding="utf-8"?>
<!-- Generator: Adobe Illustrator 21.0.1, SVG Export Plug-In . SVG Version: 6.00 Build 0)  -->
<svg version="1.1" id="Layer_1" xmlns="http://www.w3.org/2000/svg" xmlns:xlink="http://www.w3.org/1999/xlink" x="0px" y="0px"
	 viewBox="0 0 87.9 61.1" style="enable-background:new 0 0 87.9 61.1;" xml:space="preserve">
<style type="text/css">
	.st0{fill:#625772;}
</style>
<title>Asset 5</title>
<g id="Layer_2">
	<g id="Layer_4">
		<path class="st0" d="M1.5,3C12,2.9,22.3,5.9,31.2,11.6c4.5,3,9.4,7.1,10.7,12.7s-3.5,14.3-10,10.1c-3.8-2.5-2.1-7.6,1.2-9.6
			c2.8-1.7,6.3-1.9,9.5-2c5-0.2,9.9,0.3,14.7,1.6c10.8,3,19.9,12.2,18.5,24c-0.2,1.9,2.8,1.9,3,0c1.4-11.5-6.6-21.4-16.9-25.6
			c-5.9-2.2-12.2-3.2-18.5-3c-5.2,0.1-11.2,0.7-14.7,5c-5.5,6.8,1.1,15.5,9.2,13.1c9.8-2.8,8-15.7,3-21.8C31.8,4.9,15.4-0.1,1.5,0
			C0.6,0,0,0.7,0,1.5S0.6,3,1.5,3z"/>
		<path class="st0" d="M84.3,48.6c-5.3-0.5-10.7-0.9-16.1-1.1c-0.8,0-1.5,0.7-1.5,1.5c0,0.2,0.1,0.5,0.2,0.7
			c0.7,1.2,1.6,2.1,2.8,2.8c2.6,1.9,3.2,4,3.6,7c0,0.8,0.7,1.5,1.6,1.5c0.4,0,0.7-0.2,1-0.4c3.4-3.6,7.9-5.8,11.6-9
			c0.6-0.6,0.6-1.6,0-2.1c-0.2-0.2-0.4-0.3-0.6-0.4c-1-0.3-2-0.5-3.1-0.5c-1.9-0.1-1.9,2.9,0,3L86,52l-0.7-2.5
			c-3.7,3.2-8.2,5.4-11.6,9l2.6,1.1c-0.3-2.2-0.6-4.7-1.8-6.6s-4-2.7-5-4.7l-1.3,2.3c5.4,0.2,10.8,0.6,16.1,1.1
			C86.2,51.8,86.2,48.8,84.3,48.6L84.3,48.6z"/>
	</g>
</g>
</svg>
