<?xml version="1.0" encoding="utf-8"?>
<!-- Generator: Adobe Illustrator 21.0.1, SVG Export Plug-In . SVG Version: 6.00 Build 0)  -->
<svg version="1.1" id="Layer_3" xmlns="http://www.w3.org/2000/svg" xmlns:xlink="http://www.w3.org/1999/xlink" x="0px" y="0px"
	 viewBox="0 0 156.1 69.6" style="enable-background:new 0 0 156.1 69.6;" xml:space="preserve">
<style type="text/css">
	.st0{fill:#625772;}
</style>
<g>
	<g>
		<path class="st0" d="M1,3.7c8,18.1,18.8,37.8,35.3,49.4c14.3,10.1,32.5,11.7,47.6,2.1c5.3-3.3,7.6-8.8,4.9-14.7
			c-2.7-5.9-8.4-8.2-13.5-3.5c-12.6,11.7,9.9,25.9,19.9,28.9c16.4,4.9,38,3.6,46.8-13.3c0.9-1.8-1.7-3.3-2.7-1.6
			c-6.2,11.8-19.5,15.2-31.9,14.1c-6.9-0.6-14.3-2.4-20.3-6.1c-4.1-2.5-13.9-9.9-12.6-15.7c0.7-3.2,5.1-7,8.4-5.3
			c3.4,1.7,4.8,7.3,3.3,10.5C83.9,53.7,76,55.7,71,57.3c-14.3,4.7-29.6-2.5-39.8-12.5C19,32.9,10.5,17.6,3.7,2.1
			C2.9,0.3,0.2,1.9,1,3.7L1,3.7z"/>
	</g>
</g>
<g>
	<g>
		<path class="st0" d="M133.4,46.4c3.3,0,6,3.5,7.9,5.8c2.2,2.7,3.9,5.7,5.2,8.9c0.8,1.9,3.9,1.1,3.1-0.9c-1.7-4-3.8-7.7-6.7-11.1
			c-2.5-2.9-5.5-6-9.6-6C131.3,43.1,131.3,46.3,133.4,46.4L133.4,46.4z"/>
	</g>
</g>
<g>
	<g>
		<path class="st0" d="M132.4,45.4c7.9-2.3,15.4-5.3,22.6-9.2c-0.8-0.5-1.6-0.9-2.4-1.4c-0.2,4.6-1.8,8.8-3.4,13.1
			c-0.7,2-1.4,3.9-1.8,6c-0.2,0.7-0.4,5-0.7,5.2c-1.7,1.1-0.1,3.9,1.6,2.8c1.3-0.9,1.3-1.2,1.6-2.7c0.7-3,0.8-5.9,1.8-8.9
			c1.7-5.1,3.8-9.9,4-15.4c0.1-1.3-1.4-1.9-2.4-1.4c-7,3.7-14.2,6.7-21.8,8.9C129.5,42.9,130.4,46,132.4,45.4L132.4,45.4z"/>
	</g>
</g>
</svg>
